<svg width="477" height="465" viewBox="0 0 477 465" fill="none" xmlns="http://www.w3.org/2000/svg">
<g filter="url(#filter0_b_0_3)">
<g filter="url(#filter1_d_0_3)">
<path d="M173.905 80.6363C175.377 73.2894 184.108 70.1116 189.958 74.7934L408.359 249.573C414.45 254.448 412.862 264.11 405.531 266.778L132.172 366.272C124.841 368.941 117.414 362.56 118.946 354.911L173.905 80.6363Z" fill="#8832F8"/>
</g>
<g filter="url(#filter2_d_0_3)">
<path d="M95.1367 175.231C94.5012 175.59 92.9735 175.252 91.9276 174.484C90.7278 173.643 90.3995 172.741 90.9939 172.269C112.1 159.735 141.028 147.29 171.935 135.019C173.123 129.862 173.84 126.92 173.799 126.807C173.932 126.12 175.07 126.089 176.413 126.622C177.684 127.308 178.659 128.23 178.525 128.917L177.604 132.701C186.092 129.356 194.734 126.083 203.221 122.738C224.257 114.571 245.364 106.25 264.615 98.0942C265.363 97.6941 266.819 98.1858 267.906 99.0672C268.799 99.764 269.127 100.666 268.604 100.984L260.835 108.409C260.241 108.881 258.908 108.727 257.749 108C256.898 107.416 256.272 106.75 256.334 106.216C240.455 112.762 223.776 119.216 207.026 125.823C196.847 129.783 186.554 133.785 176.488 137.704C170.191 165.664 151.208 250.343 152.172 250.886C152.48 251.03 155.533 243.278 155.533 243.278C155.819 242.663 157.07 242.591 158.342 243.277C159.572 243.851 160.475 244.927 160.188 245.543C160.188 245.543 156.069 255.981 150.594 252.866C146.851 250.652 163.867 171.797 170.819 140.023C141.829 151.596 114.818 163.343 95.1367 175.231ZM197.327 178.774C197.46 178.087 198.711 178.015 199.941 178.588C201.285 179.121 202.187 180.197 202.054 180.884L200.303 189.056C203.552 185.702 208.308 181.928 211.59 183.926C213.015 184.685 213.621 187.401 215.128 186.98C217.311 186.313 220.304 184.713 223.021 182.703C223.615 182.231 224.086 181.421 225.132 182.19C226.332 183.03 226.004 183.532 225.369 183.891C222.468 186.097 217.466 189.194 215.016 189.831C212.002 190.672 210.812 190.211 207.264 188.182C204.834 186.768 198.041 199.329 198.041 199.329C197.856 199.524 195.604 211.581 195.41 212.802C195.277 213.488 194.026 213.561 192.795 212.987C191.452 212.454 190.55 211.378 190.683 210.691L197.327 178.774ZM227.448 171.386C227.848 170.73 229.14 170.77 230.411 171.457C231.683 172.143 232.432 173.148 232.032 173.804C230.331 176.85 228.036 183.176 227.279 188.815C226.85 192.547 227.619 194.31 228.952 194.463C233.822 193.457 241.906 176.723 241.865 176.61C242.152 175.995 242.613 174.806 243.884 175.492C245.268 176.138 244.94 176.64 244.654 177.255C244.541 177.296 233.21 204.407 225.283 197.714C222.678 195.47 222.072 191.349 222.593 186.817C223.309 181.065 225.635 174.472 227.448 171.386ZM233.25 165.571C233.004 166.299 231.712 166.259 230.481 165.685C229.21 164.998 228.349 164.035 228.594 163.307L232.282 153.792C232.528 153.064 233.707 153.145 235.05 153.678C236.322 154.365 237.071 155.369 236.938 156.056L233.25 165.571ZM243.866 169.114C244.194 168.611 245.486 168.652 246.757 169.338C248.029 170.025 248.665 171.071 248.378 171.686C248.122 172.034 247.865 172.383 247.722 172.691C246.134 175.695 245.489 179.888 245.521 183.836C245.686 187.096 246.22 189.966 247.194 190.889C247.84 190.909 248.517 190.663 249.337 190.109C250.229 189.401 251.223 188.273 251.94 186.735C253.026 184.807 253.753 182.244 254.162 179.158C254.418 177.405 254.407 175.621 254.284 173.878C251.639 172.925 249.434 171.429 247.793 169.728C246.152 168.026 245.075 166.12 244.654 164.613C244.305 162.952 244.571 161.578 245.842 160.86C246.816 160.378 247.8 160.275 248.867 160.398C250.62 160.654 252.353 161.555 253.758 162.959C254.886 163.954 255.717 165.184 256.476 166.567C257.235 167.951 257.85 169.643 258.241 171.416C260.885 170.964 264.771 170.061 267.897 166.369C268.337 165.826 268.737 165.17 270.009 165.856C271.167 166.584 271.342 167.414 270.901 167.958C266.668 172.818 262.886 174.706 258.939 174.738C259.185 176.819 259.248 179.095 258.848 181.156C258.439 184.242 257.681 187.072 256.523 189.153C255.581 190.773 254.669 192.127 253.551 192.917C252.25 193.901 250.743 194.322 248.989 194.066C248.036 193.903 247.041 193.626 246.077 193.083C245.77 192.94 245.462 192.796 245.155 192.653C242.406 190.716 241.001 186.502 240.805 182.104C240.691 177.932 241.479 173.431 243.139 170.272C243.395 169.924 243.61 169.462 243.866 169.114ZM253.863 170.966C253.432 169.08 252.775 167.276 252.016 165.892C251.534 164.918 250.98 164.098 250.549 163.617C250.436 163.658 250.662 163.575 250.662 163.575C250.508 163.504 250.17 163.627 249.872 163.863C249.196 164.109 249.104 164.909 249.36 165.965C249.617 167.021 250.294 168.179 251.309 169.214C251.976 169.993 252.827 170.577 253.863 170.966ZM268.385 155.976C268.405 155.33 269.656 155.258 270.886 155.831C272.229 156.364 273.204 157.286 273.112 158.086L272.354 162.321C274.619 157.665 276.975 153.615 278.831 152.046C284.96 147.133 286.623 155.212 286.872 162.911C287.128 162.562 287.497 162.173 287.794 161.937C288.645 161.116 289.424 160.45 290.213 160.162C291.976 159.393 293.77 159.761 295.565 161.535C296.58 162.57 297.278 164.487 297.32 167.409C297.289 167.675 305.815 153.207 305.928 153.166C306.215 152.55 306.778 150.941 308.05 151.627C309.393 152.16 309.526 152.877 309.239 153.493C309.168 153.647 292.56 191.872 292.562 165.565C292.511 165.072 292.501 164.693 292.449 164.201L292.08 164.591C289.61 167.278 286.854 171.984 286.557 173.625L286.598 173.737C286.506 174.537 285.409 174.681 284.066 174.148C282.723 173.616 281.82 172.539 281.84 171.893C281.799 171.781 283.342 154.618 283.045 154.854C277.736 159.213 268.721 184.969 268.65 185.123C268.475 185.697 267.337 185.728 266.148 185.267C264.918 184.693 263.902 183.658 264.035 182.971L268.385 155.976ZM310.369 141.205C310.769 140.549 312.06 140.59 313.332 141.276C314.603 141.963 315.352 142.967 314.952 143.624C313.252 146.669 310.957 152.995 310.2 158.634C309.77 162.366 310.54 164.129 311.873 164.283C316.742 163.277 324.826 146.543 324.785 146.43C325.072 145.815 325.533 144.625 326.805 145.312C328.189 145.957 327.861 146.46 327.574 147.075C327.461 147.116 316.13 174.226 308.203 167.534C305.599 165.289 304.992 161.168 305.514 156.636C306.23 150.885 308.555 144.292 310.369 141.205ZM316.17 135.391C315.924 136.119 314.632 136.078 313.402 135.504C312.131 134.818 311.269 133.854 311.515 133.126L315.203 123.611C315.449 122.883 316.628 122.965 317.971 123.497C319.242 124.184 319.991 125.188 319.858 125.875L316.17 135.391Z" fill="white"/>
</g>
<g filter="url(#filter3_d_0_3)">
<path d="M188.61 261.739C187.862 262.139 186.406 261.648 185.319 260.766C184.273 259.998 184.058 259.055 184.847 258.767C197.609 253.484 209.837 241.116 217.727 228.411C221.621 222.269 224.377 216.157 225.596 210.734C226.896 205.535 226.741 201.25 224.844 198.493C224.177 197.714 223.48 197.201 222.598 196.884C221.983 196.597 221.183 196.505 220.425 196.525C212.674 196.282 201.029 203.585 189.93 215.542C178.645 227.694 164.338 244.523 155.048 275.487C152.406 284.367 150.45 293.379 150.094 302.575C149.606 315.268 152.121 325.335 156.962 331.618C159.639 335.113 163.115 337.296 167.154 337.869C172.065 338.38 177.95 337.005 184.531 333.332C200.122 324.593 219.195 302.965 239.022 264.462C239.35 263.959 240.641 264 241.872 264.574C243.143 265.26 243.892 266.265 243.605 266.88C223.635 305.691 204.449 327.36 188.561 336.335C181.457 340.325 174.814 341.722 169.062 341.006C162.511 340.198 156.994 336.97 152.861 331.578C147.661 324.659 144.9 313.916 145.337 300.731C145.652 291.422 147.792 282.215 150.393 273.223C159.755 242.104 174.134 225.122 185.531 212.929C196.999 200.582 209.279 192.92 218.096 193.286C219.388 193.327 220.762 193.593 222.177 193.972C225.089 194.955 227.335 196.564 228.873 198.686C231.396 202.11 231.685 207.113 230.323 212.844C228.992 218.309 226.205 224.687 222.311 230.829C214.236 243.729 201.752 256.445 188.61 261.739ZM240.935 260.573C241.263 260.07 242.555 260.111 243.827 260.797C245.098 261.484 245.734 262.53 245.447 263.145C245.191 263.493 244.935 263.842 244.791 264.15C243.203 267.154 242.558 271.347 242.59 275.295C242.755 278.555 243.289 281.425 244.264 282.348C244.909 282.368 245.586 282.122 246.406 281.568C247.298 280.86 248.292 279.732 249.009 278.194C250.095 276.266 250.823 273.703 251.232 270.617C251.487 268.864 251.477 267.08 251.353 265.337C248.708 264.384 246.503 262.888 244.862 261.187C243.221 259.485 242.144 257.579 241.724 256.072C241.374 254.411 241.641 253.037 242.912 252.319C243.886 251.837 244.87 251.734 245.936 251.857C247.689 252.113 249.422 253.014 250.827 254.418C251.955 255.413 252.786 256.643 253.545 258.026C254.304 259.41 254.92 261.102 255.31 262.875C257.955 262.423 261.84 261.52 264.966 257.828C265.407 257.285 265.806 256.629 267.078 257.315C268.237 258.043 268.411 258.873 267.97 259.417C263.738 264.277 259.955 266.165 256.008 266.197C256.255 268.278 256.317 270.554 255.918 272.615C255.508 275.701 254.751 278.531 253.593 280.612C252.65 282.232 251.738 283.586 250.621 284.376C249.319 285.36 247.812 285.781 246.059 285.525C245.105 285.362 244.111 285.085 243.147 284.542C242.839 284.399 242.532 284.255 242.224 284.112C239.476 282.175 238.07 277.962 237.874 273.563C237.76 269.391 238.548 264.89 240.208 261.732C240.464 261.383 240.679 260.921 240.935 260.573ZM250.932 262.425C250.501 260.539 249.844 258.735 249.085 257.351C248.603 256.377 248.049 255.557 247.618 255.076C247.506 255.117 247.731 255.035 247.731 255.035C247.577 254.963 247.239 255.086 246.942 255.322C246.265 255.568 246.173 256.368 246.43 257.424C246.686 258.48 247.363 259.638 248.379 260.673C249.045 261.452 249.896 262.036 250.932 262.425ZM267.883 246.04C268.17 245.424 269.462 245.465 270.693 246.039C271.964 246.725 272.713 247.73 272.58 248.417C267.58 261.346 269.366 268.358 270.402 268.748C272.165 269.383 278.837 260.697 281.191 248.219L281.366 247.645C281.653 247.03 282.903 246.958 284.175 247.644C285.405 248.218 286.308 249.294 286.021 249.91C286.021 249.91 285.918 250.33 285.519 250.986C284.71 253.324 280.603 268.355 287.583 261.217C291.2 257.474 294.869 251.414 296.405 246.513C296.651 245.785 296.692 244.493 298.076 245.139C299.307 245.712 298.989 246.594 298.702 247.21C297.094 252.264 294.738 259.124 291.007 262.908C287.758 266.261 282.468 267.165 280.027 262.563C272.352 276.211 262.562 277.731 263.756 261.717C264.144 256.467 266.101 250.264 267.883 246.04ZM297.237 239.187C297.37 238.5 298.58 238.315 299.81 238.889C301.153 239.422 302.056 240.498 301.923 241.185L300.95 247.285C305.193 239.994 310.04 232.611 312.767 232.385L312.992 232.303C316.745 232.087 318.088 234.024 318.325 237.13C318.438 238.494 318.182 240.247 318.009 242.226C317.61 245.691 317.109 249.577 317.109 249.577C321.579 250.632 329.858 235.486 329.971 235.445C330.145 234.871 330.852 232.954 332.124 233.64C333.467 234.173 332.872 234.645 332.627 235.373C332.627 235.373 325.63 254.393 318.371 252.693C312.106 251.27 312.781 245.405 313.323 240.228C313.446 239.162 313.568 238.095 313.578 237.07C308.382 242.792 298.597 262.572 298.31 263.187C298.136 263.761 296.998 263.792 295.809 263.331C294.537 262.645 293.563 261.723 293.696 261.036L297.237 239.187ZM343.148 172.417C343.323 171.843 344.532 171.658 345.804 172.345C347.034 172.919 347.937 173.995 347.763 174.569C347.804 174.682 343.717 189.067 339.724 205.462L368.478 194.996C369.268 194.708 370.836 195.159 371.77 195.969C372.857 196.85 373.072 197.793 372.283 198.081L338.567 210.352C337.512 214.823 336.498 219.406 335.556 223.835L335.597 223.948C335.762 224.399 335.618 224.706 335.393 224.788C332.577 238.456 331.196 246.237 333.257 248.041C336.682 251.136 352.924 224.537 352.883 224.424C353.211 223.922 353.805 223.45 355.077 224.137C356.348 224.823 355.877 225.633 355.549 226.136C355.477 226.29 339.074 260.865 329.854 252.728C327.014 250.186 328.261 237.473 331.127 222.893C331.014 222.934 331.352 221.406 331.352 221.406C328.459 212.754 300.002 224.389 300.002 224.389C299.212 224.676 297.644 224.225 296.669 223.303C295.623 222.534 295.408 221.591 296.197 221.304L334.311 207.432C338.407 189.212 343.077 172.571 343.148 172.417ZM331.854 218.925C332.325 216.711 332.796 214.496 333.267 212.281L318.966 216.848C322.842 216.97 329.188 217.214 331.854 218.925Z" fill="white"/>
</g>
</g>
<path d="M138.389 345.001C138.397 344.992 138.406 344.981 138.417 344.967C138.432 344.949 138.446 344.934 138.457 344.92C138.679 344.655 138.947 344.459 139.26 344.332C139.573 344.205 139.903 344.168 140.249 344.221C140.594 344.274 140.929 344.436 141.252 344.707C141.544 344.952 141.751 345.229 141.874 345.538C142.005 345.847 142.045 346.164 141.994 346.489C141.947 346.809 141.805 347.11 141.568 347.393C141.346 347.658 141.087 347.861 140.792 348.004C140.496 348.146 140.183 348.25 139.852 348.317C139.529 348.382 139.208 348.438 138.887 348.482L132.299 349.402L131.496 350.358L137.637 355.51L138.704 354.238L134.685 350.865L134.758 350.777L139.168 350.13C139.71 350.049 140.223 349.962 140.705 349.87C141.193 349.782 141.644 349.641 142.06 349.446C142.483 349.251 142.865 348.952 143.204 348.548C143.61 348.063 143.85 347.526 143.924 346.937C144.001 346.344 143.905 345.747 143.636 345.147C143.376 344.546 142.942 343.991 142.336 343.483C141.829 343.057 141.321 342.765 140.812 342.606C140.307 342.442 139.816 342.385 139.338 342.435C138.868 342.485 138.433 342.62 138.032 342.843C137.631 343.065 137.284 343.351 136.99 343.701L136.928 343.775L138.389 345.001Z" fill="white"/>
<path d="M396.149 256.854L396.378 255.556C396.459 255.1 396.612 254.719 396.838 254.414C397.06 254.102 397.335 253.877 397.663 253.738C397.986 253.593 398.341 253.554 398.727 253.623C399.115 253.685 399.445 253.838 399.717 254.083C399.983 254.326 400.172 254.642 400.282 255.03C400.387 255.412 400.397 255.842 400.313 256.321C400.239 256.742 400.103 257.108 399.905 257.418C399.703 257.722 399.466 257.953 399.194 258.114C398.921 258.274 398.636 258.342 398.336 258.319L398.017 260.128C398.598 260.207 399.16 260.128 399.701 259.89C400.238 259.645 400.704 259.249 401.098 258.699C401.487 258.149 401.755 257.456 401.903 256.619C402.01 256.007 402.03 255.425 401.961 254.871C401.887 254.311 401.729 253.807 401.487 253.359C401.245 252.906 400.927 252.532 400.533 252.236C400.133 251.94 399.664 251.75 399.126 251.667C398.496 251.562 397.953 251.618 397.498 251.835C397.045 252.047 396.679 252.33 396.402 252.686C396.125 253.042 395.939 253.39 395.843 253.73L395.74 253.712C395.739 253.408 395.66 253.064 395.502 252.679C395.338 252.293 395.078 251.944 394.723 251.631C394.368 251.319 393.912 251.119 393.356 251.033C392.77 250.948 392.218 251.026 391.699 251.268C391.182 251.504 390.739 251.887 390.372 252.417C390.005 252.947 389.755 253.605 389.622 254.391C389.518 255.015 389.508 255.579 389.592 256.081C389.676 256.584 389.833 257.025 390.064 257.405C390.294 257.785 390.582 258.094 390.926 258.334C391.272 258.567 391.654 258.73 392.072 258.821L392.397 256.978C392.197 256.93 392.013 256.842 391.846 256.711C391.674 256.573 391.531 256.406 391.417 256.207C391.298 256.007 391.219 255.782 391.179 255.531C391.135 255.28 391.138 255.006 391.19 254.712C391.293 254.129 391.541 253.682 391.935 253.371C392.324 253.053 392.782 252.94 393.307 253.033C393.66 253.089 393.96 253.228 394.206 253.45C394.453 253.666 394.631 253.942 394.739 254.276C394.842 254.603 394.859 254.96 394.791 255.347L394.574 256.576L396.149 256.854Z" fill="white"/>
<path d="M183.404 88.4998L187.507 99.7733L189.357 99.1C189.685 98.6128 190.012 98.1256 190.34 97.6384C190.668 97.1513 190.995 96.6613 191.32 96.1686L190.671 94.3847C190.461 94.6981 190.25 95.0088 190.037 95.3167C189.827 95.6302 189.616 95.9409 189.404 96.2488C189.194 96.5622 188.98 96.8739 188.762 97.1839L188.671 97.2169L185.254 87.8264L183.404 88.4998Z" fill="white"/>
<defs>
<filter id="filter0_b_0_3" x="81.1871" y="68.5923" width="334.926" height="302.298" filterUnits="userSpaceOnUse" color-interpolation-filters="sRGB">
<feFlood flood-opacity="0" result="BackgroundImageFix"/>
<feGaussianBlur in="BackgroundImage" stdDeviation="2"/>
<feComposite in2="SourceAlpha" operator="in" result="effect1_backgroundBlur_0_3"/>
<feBlend mode="normal" in="SourceGraphic" in2="effect1_backgroundBlur_0_3" result="shape"/>
</filter>
<filter id="filter1_d_0_3" x="108.744" y="62.5923" width="313.369" height="314.298" filterUnits="userSpaceOnUse" color-interpolation-filters="sRGB">
<feFlood flood-opacity="0" result="BackgroundImageFix"/>
<feColorMatrix in="SourceAlpha" type="matrix" values="0 0 0 0 0 0 0 0 0 0 0 0 0 0 0 0 0 0 127 0" result="hardAlpha"/>
<feOffset/>
<feGaussianBlur stdDeviation="5"/>
<feComposite in2="hardAlpha" operator="out"/>
<feColorMatrix type="matrix" values="0 0 0 0 0 0 0 0 0 0 0 0 0 0 0 0 0 0 0.25 0"/>
<feBlend mode="normal" in2="BackgroundImageFix" result="effect1_dropShadow_0_3"/>
<feBlend mode="normal" in="SourceGraphic" in2="effect1_dropShadow_0_3" result="shape"/>
</filter>
<filter id="filter2_d_0_3" x="73.1871" y="66.8631" width="282.229" height="212.486" filterUnits="userSpaceOnUse" color-interpolation-filters="sRGB">
<feFlood flood-opacity="0" result="BackgroundImageFix"/>
<feColorMatrix in="SourceAlpha" type="matrix" values="0 0 0 0 0 0 0 0 0 0 0 0 0 0 0 0 0 0 127 0" result="hardAlpha"/>
<feOffset/>
<feGaussianBlur stdDeviation="6"/>
<feComposite in2="hardAlpha" operator="out"/>
<feColorMatrix type="matrix" values="0 0 0 0 1 0 0 0 0 1 0 0 0 0 1 0 0 0 1 0"/>
<feBlend mode="normal" in2="BackgroundImageFix" result="effect1_dropShadow_0_3"/>
<feBlend mode="normal" in="SourceGraphic" in2="effect1_dropShadow_0_3" result="shape"/>
</filter>
<filter id="filter3_d_0_3" x="100.528" y="128.807" width="308.051" height="232.548" filterUnits="userSpaceOnUse" color-interpolation-filters="sRGB">
<feFlood flood-opacity="0" result="BackgroundImageFix"/>
<feColorMatrix in="SourceAlpha" type="matrix" values="0 0 0 0 0 0 0 0 0 0 0 0 0 0 0 0 0 0 127 0" result="hardAlpha"/>
<feOffset/>
<feGaussianBlur stdDeviation="6"/>
<feComposite in2="hardAlpha" operator="out"/>
<feColorMatrix type="matrix" values="0 0 0 0 1 0 0 0 0 1 0 0 0 0 1 0 0 0 1 0"/>
<feBlend mode="normal" in2="BackgroundImageFix" result="effect1_dropShadow_0_3"/>
<feBlend mode="normal" in="SourceGraphic" in2="effect1_dropShadow_0_3" result="shape"/>
</filter>
</defs>
</svg>
